ClarityCity-Regular Italic.ufo
<glyph name="percent" format="1">
  <advance width="838"/>
  <unicode hex="0025"/>
  <outline>
    <contour>
      <point x="92" y="0" type="line"/>
      <point x="171" y="0" type="line"/>
      <point x="783" y="687" type="line"/>
      <point x="705" y="687" type="line"/>
    </contour>
    <contour>
      <point x="564" y="-10" type="curve" smooth="yes"/>
      <point x="670" y="-10"/>
      <point x="757" y="90"/>
      <point x="757" y="198" type="curve" smooth="yes"/>
      <point x="757" y="275"/>
      <point x="709" y="334"/>
      <point x="625" y="334" type="curve" smooth="yes"/>
      <point x="518" y="334"/>
      <point x="431" y="232"/>
      <point x="431" y="126" type="curve" smooth="yes"/>
      <point x="431" y="46"/>
      <point x="483" y="-10"/>
    </contour>
    <contour>
      <point x="565" y="44" type="curve" smooth="yes"/>
      <point x="520" y="44"/>
      <point x="494" y="77"/>
      <point x="494" y="126" type="curve" smooth="yes"/>
      <point x="494" y="202"/>
      <point x="552" y="280"/>
      <point x="624" y="280" type="curve" smooth="yes"/>
      <point x="668" y="280"/>
      <point x="696" y="247"/>
      <point x="696" y="199" type="curve" smooth="yes"/>
      <point x="696" y="128"/>
      <point x="641" y="44"/>
    </contour>
    <contour>
      <point x="247" y="349" type="curve" smooth="yes"/>
      <point x="353" y="349"/>
      <point x="440" y="447"/>
      <point x="440" y="557" type="curve" smooth="yes"/>
      <point x="440" y="635"/>
      <point x="392" y="693"/>
      <point x="308" y="693" type="curve" smooth="yes"/>
      <point x="202" y="693"/>
      <point x="115" y="593"/>
      <point x="115" y="484" type="curve" smooth="yes"/>
      <point x="115" y="407"/>
      <point x="163" y="349"/>
    </contour>
    <contour>
      <point x="248" y="403" type="curve" smooth="yes"/>
      <point x="204" y="403"/>
      <point x="176" y="437"/>
      <point x="176" y="486" type="curve" smooth="yes"/>
      <point x="176" y="556"/>
      <point x="233" y="639"/>
      <point x="307" y="639" type="curve" smooth="yes"/>
      <point x="351" y="639"/>
      <point x="378" y="605"/>
      <point x="378" y="556" type="curve" smooth="yes"/>
      <point x="378" y="481"/>
      <point x="320" y="403"/>
    </contour>
  </outline>
</glyph>
<glyph name="plus" format="1">
  <advance width="590"/>
  <unicode hex="002B"/>
  <outline>
    <contour>
      <point x="73" y="297" type="line"/>
      <point x="532" y="297" type="line"/>
      <point x="548" y="371" type="line"/>
      <point x="89" y="371" type="line"/>
    </contour>
    <contour>
      <point x="225" y="105" type="line"/>
      <point x="300" y="105" type="line"/>
      <point x="396" y="564" type="line"/>
      <point x="321" y="564" type="line"/>
    </contour>
  </outline>
</glyph>
<glyph name="zero" format="1">
  <advance width="692"/>
  <unicode hex="0030"/>
  <outline>
    <contour>
      <point x="295" y="-12" type="curve" smooth="yes"/>
      <point x="507" y="-12"/>
      <point x="659" y="218"/>
      <point x="659" y="440" type="curve" smooth="yes"/>
      <point x="659" y="596"/>
      <point x="573" y="699"/>
      <point x="432" y="699" type="curve" smooth="yes"/>
      <point x="221" y="699"/>
      <point x="68" y="469"/>
      <point x="68" y="248" type="curve" smooth="yes"/>
      <point x="68" y="91"/>
      <point x="154" y="-12"/>
    </contour>
    <contour>
      <point x="299" y="60" type="curve" smooth="yes"/>
      <point x="203" y="60"/>
      <point x="146" y="136"/>
      <point x="146" y="251" type="curve" smooth="yes"/>
      <point x="146" y="422"/>
      <point x="263" y="627"/>
      <point x="428" y="627" type="curve" smooth="yes"/>
      <point x="524" y="627"/>
      <point x="581" y="552"/>
      <point x="581" y="438" type="curve" smooth="yes"/>
      <point x="581" y="265"/>
      <point x="465" y="60"/>
    </contour>
  </outline>
</glyph>
<glyph name="one" format="1">
  <advance width="356"/>
  <unicode hex="0031"/>
  <outline>
    <contour>
      <point x="119" y="0" type="line"/>
      <point x="197" y="0" type="line"/>
      <point x="340" y="687" type="line"/>
      <point x="277" y="687" type="line"/>
      <point x="85" y="572" type="line"/>
      <point x="108" y="514" type="line"/>
      <point x="243" y="592" type="line"/>
    </contour>
  </outline>
</glyph>
<glyph name="five" format="1">
  <advance width="593"/>
  <unicode hex="0035"/>
  <outline>
    <contour>
      <point x="245" y="-12" type="curve" smooth="yes"/>
      <point x="404" y="-12"/>
      <point x="536" y="107"/>
      <point x="536" y="259" type="curve" smooth="yes"/>
      <point x="536" y="366"/>
      <point x="454" y="428"/>
      <point x="343" y="428" type="curve" smooth="yes"/>
      <point x="283" y="428"/>
      <point x="232" y="409"/>
      <point x="190" y="384" type="curve"/>
      <point x="247" y="613" type="line"/>
      <point x="577" y="613" type="line"/>
      <point x="592" y="687" type="line"/>
      <point x="186" y="687" type="line"/>
      <point x="103" y="334" type="line"/>
      <point x="156" y="304" type="line"/>
      <point x="206" y="336"/>
      <point x="262" y="359"/>
      <point x="324" y="359" type="curve" smooth="yes"/>
      <point x="405" y="359"/>
      <point x="456" y="315"/>
      <point x="456" y="247" type="curve" smooth="yes"/>
      <point x="456" y="147"/>
      <point x="362" y="58"/>
      <point x="252" y="58" type="curve" smooth="yes"/>
      <point x="179" y="58"/>
      <point x="122" y="94"/>
      <point x="81" y="152" type="curve"/>
      <point x="22" y="99" type="line"/>
      <point x="66" y="35"/>
      <point x="137" y="-12"/>
    </contour>
  </outline>
</glyph>
<glyph name="six" format="1">
  <advance width="616"/>
  <unicode hex="0036"/>
  <outline>
    <contour>
      <point x="273" y="-12" type="curve" smooth="yes"/>
      <point x="427" y="-12"/>
      <point x="561" y="108"/>
      <point x="561" y="259" type="curve" smooth="yes"/>
      <point x="561" y="367"/>
      <point x="478" y="429"/>
      <point x="366" y="429" type="curve" smooth="yes"/>
      <point x="280" y="429"/>
      <point x="195" y="385"/>
      <point x="139" y="306" type="curve"/>
      <point x="136" y="200" type="line"/>
      <point x="159" y="293"/>
      <point x="249" y="362"/>
      <point x="349" y="362" type="curve" smooth="yes"/>
      <point x="428" y="362"/>
      <point x="483" y="321"/>
      <point x="483" y="250" type="curve" smooth="yes"/>
      <point x="483" y="151"/>
      <point x="385" y="55"/>
      <point x="275" y="55" type="curve" smooth="yes"/>
      <point x="183" y="55"/>
      <point x="144" y="125"/>
      <point x="144" y="224" type="curve" smooth="yes"/>
      <point x="144" y="402"/>
      <point x="266" y="628"/>
      <point x="422" y="628" type="curve" smooth="yes"/>
      <point x="485" y="628"/>
      <point x="523" y="600"/>
      <point x="558" y="558" type="curve"/>
      <point x="609" y="615" type="line"/>
      <point x="568" y="664"/>
      <point x="514" y="699"/>
      <point x="427" y="699" type="curve" smooth="yes"/>
      <point x="223" y="699"/>
      <point x="66" y="446"/>
      <point x="66" y="216" type="curve" smooth="yes"/>
      <point x="66" y="82"/>
      <point x="126" y="-12"/>
    </contour>
  </outline>
</glyph>
<glyph name="greater" format="1">
  <advance width="592"/>
  <unicode hex="003E"/>
  <outline>
    <contour>
      <point x="43" y="88" type="line"/>
      <point x="545" y="314" type="line"/>
      <point x="557" y="373" type="line"/>
      <point x="149" y="599" type="line"/>
      <point x="135" y="529" type="line"/>
      <point x="477" y="344" type="line"/>
      <point x="57" y="159" type="line"/>
    </contour>
  </outline>
</glyph>
<glyph name="question" format="1">
  <advance width="524"/>
  <unicode hex="003F"/>
  <outline>
    <contour>
      <point x="178" y="193" type="line"/>
      <point x="262" y="193" type="line"/>
      <point x="288" y="320" type="line"/>
      <point x="409" y="345"/>
      <point x="529" y="430"/>
      <point x="529" y="547" type="curve" smooth="yes"/>
      <point x="529" y="634"/>
      <point x="462" y="699"/>
      <point x="348" y="699" type="curve" smooth="yes"/>
      <point x="250" y="699"/>
      <point x="169" y="652"/>
      <point x="103" y="586" type="curve"/>
      <point x="147" y="531" type="line"/>
      <point x="201" y="585"/>
      <point x="263" y="628"/>
      <point x="341" y="628" type="curve" smooth="yes"/>
      <point x="412" y="628"/>
      <point x="449" y="586"/>
      <point x="449" y="536" type="curve" smooth="yes"/>
      <point x="449" y="447"/>
      <point x="328" y="389"/>
      <point x="216" y="380" type="curve"/>
    </contour>
    <component base="period" xOffset="78"/>
  </outline>
</glyph>
<glyph name="F" format="1">
  <advance width="639"/>
  <unicode hex="0046"/>
  <outline>
    <contour>
      <point x="55" y="0" type="line"/>
      <point x="134" y="0" type="line"/>
      <point x="203" y="333" type="line"/>
      <point x="179" y="313" type="line"/>
      <point x="573" y="313" type="line"/>
      <point x="588" y="387" type="line"/>
      <point x="196" y="387" type="line"/>
      <point x="212" y="367" type="line"/>
      <point x="265" y="633" type="line"/>
      <point x="241" y="613" type="line"/>
      <point x="676" y="613" type="line"/>
      <point x="691" y="687" type="line"/>
      <point x="198" y="687" type="line"/>
    </contour>
  </outline>
</glyph>
<glyph name="H" format="1">
  <advance width="779"/>
  <unicode hex="0048"/>
  <outline>
    <contour>
      <point x="55" y="0" type="line"/>
      <point x="133" y="0" type="line"/>
      <point x="202" y="335" type="line"/>
      <point x="176" y="313" type="line"/>
      <point x="624" y="313" type="line"/>
      <point x="607" y="335" type="line"/>
      <point x="538" y="0" type="line"/>
      <point x="616" y="0" type="line"/>
      <point x="759" y="687" type="line"/>
      <point x="681" y="687" type="line"/>
      <point x="615" y="365" type="line"/>
      <point x="642" y="387" type="line"/>
      <point x="193" y="387" type="line"/>
      <point x="210" y="365" type="line"/>
      <point x="276" y="687" type="line"/>
      <point x="198" y="687" type="line"/>
    </contour>
  </outline>
</glyph>
<glyph name="M" format="1">
  <advance width="884"/>
  <unicode hex="004D"/>
  <outline>
    <contour>
      <point x="55" y="0" type="line"/>
      <point x="133" y="0" type="line"/>
      <point x="242" y="519" type="line"/>
      <point x="399" y="40" type="line"/>
      <point x="752" y="519" type="line"/>
      <point x="643" y="0" type="line"/>
      <point x="721" y="0" type="line"/>
      <point x="864" y="687" type="line"/>
      <point x="785" y="687" type="line"/>
      <point x="430" y="208" type="line"/>
      <point x="275" y="687" type="line"/>
      <point x="198" y="687" type="line"/>
    </contour>
  </outline>
</glyph>
<glyph name="P" format="1">
  <advance width="684"/>
  <unicode hex="0050"/>
  <outline>
    <contour>
      <point x="55" y="0" type="line"/>
      <point x="133" y="0" type="line"/>
      <point x="185" y="247" type="line"/>
      <point x="381" y="247" type="line" smooth="yes"/>
      <point x="547" y="247"/>
      <point x="687" y="363"/>
      <point x="687" y="500" type="curve" smooth="yes"/>
      <point x="687" y="610"/>
      <point x="598" y="687"/>
      <point x="473" y="687" type="curve" smooth="yes"/>
      <point x="198" y="687" type="line"/>
    </contour>
    <contour>
      <point x="200" y="321" type="line"/>
      <point x="261" y="613" type="line"/>
      <point x="457" y="613" type="line" smooth="yes"/>
      <point x="547" y="613"/>
      <point x="610" y="566"/>
      <point x="610" y="499" type="curve" smooth="yes"/>
      <point x="610" y="402"/>
      <point x="513" y="321"/>
      <point x="397" y="321" type="curve" smooth="yes"/>
    </contour>
  </outline>
</glyph>
<glyph name="Q" format="1">
  <advance width="833"/>
  <unicode hex="0051"/>
  <outline>
    <contour>
      <point x="656" y="0" type="line"/>
      <point x="710" y="51" type="line"/>
      <point x="500" y="271" type="line"/>
      <point x="446" y="220" type="line"/>
    </contour>
    <component base="O"/>
  </outline>
</glyph>
<glyph name="U" format="1">
  <advance width="755"/>
  <unicode hex="0055"/>
  <outline>
    <contour>
      <point x="322" y="-12" type="curve" smooth="yes"/>
      <point x="490" y="-12"/>
      <point x="633" y="110"/>
      <point x="669" y="282" type="curve" smooth="yes"/>
      <point x="753" y="687" type="line"/>
      <point x="675" y="687" type="line"/>
      <point x="592" y="288" type="line" smooth="yes"/>
      <point x="565" y="154"/>
      <point x="459" y="59"/>
      <point x="336" y="59" type="curve" smooth="yes"/>
      <point x="214" y="59"/>
      <point x="146" y="151"/>
      <point x="173" y="282" type="curve" smooth="yes"/>
      <point x="257" y="687" type="line"/>
      <point x="179" y="687" type="line"/>
      <point x="96" y="288" type="line" smooth="yes"/>
      <point x="60" y="112"/>
      <point x="153" y="-12"/>
    </contour>
    <contour>
      <point x="339" y="0" type="move" name="bottom"/>
    </contour>
    <contour>
      <point x="464" y="687" type="move" name="top"/>
    </contour>
  </outline>
</glyph>
<glyph name="W" format="1">
  <advance width="1067"/>
  <unicode hex="0057"/>
  <outline>
    <contour>
      <point x="211" y="0" type="line"/>
      <point x="288" y="0" type="line"/>
      <point x="603" y="585" type="line"/>
      <point x="671" y="0" type="line"/>
      <point x="748" y="0" type="line"/>
      <point x="1126" y="687" type="line"/>
      <point x="1037" y="687" type="line"/>
      <point x="730" y="131" type="line"/>
      <point x="665" y="687" type="line"/>
      <point x="578" y="687" type="line"/>
      <point x="279" y="131" type="line"/>
      <point x="206" y="687" type="line"/>
      <point x="119" y="687" type="line"/>
    </contour>
    <contour>
      <point x="622" y="687" type="move" name="top"/>
    </contour>
  </outline>
</glyph>
<glyph name="Y" format="1">
  <advance width="673"/>
  <unicode hex="0059"/>
  <outline>
    <contour>
      <point x="241" y="0" type="line"/>
      <point x="323" y="0" type="line"/>
      <point x="383" y="280" type="line"/>
      <point x="743" y="687" type="line"/>
      <point x="647" y="687" type="line"/>
      <point x="348" y="347" type="line"/>
      <point x="187" y="687" type="line"/>
      <point x="108" y="687" type="line"/>
      <point x="301" y="280" type="line"/>
    </contour>
    <contour>
      <point x="417" y="687" type="move" name="top"/>
    </contour>
  </outline>
</glyph>
<glyph name="bracketleft" format="1">
  <advance width="371"/>
  <unicode hex="005B"/>
  <outline>
    <contour>
      <point x="28" y="-115" type="line"/>
      <point x="264" y="-115" type="line"/>
      <point x="275" y="-58" type="line"/>
      <point x="105" y="-58" type="line"/>
      <point x="258" y="677" type="line"/>
      <point x="428" y="677" type="line"/>
      <point x="440" y="734" type="line"/>
      <point x="204" y="734" type="line"/>
    </contour>
  </outline>
</glyph>
<glyph name="backslash" format="1">
  <advance width="434"/>
  <unicode hex="005C"/>
  <outline>
    <contour>
      <point x="282" y="-74" type="line"/>
      <point x="365" y="-74" type="line"/>
      <point x="184" y="743" type="line"/>
      <point x="101" y="743" type="line"/>
    </contour>
  </outline>
</glyph>
<glyph name="bracketright" format="1">
  <advance width="371"/>
  <unicode hex="005D"/>
  <outline>
    <contour>
      <point x="-48" y="-115" type="line"/>
      <point x="188" y="-115" type="line"/>
      <point x="364" y="734" type="line"/>
      <point x="128" y="734" type="line"/>
      <point x="116" y="677" type="line"/>
      <point x="286" y="677" type="line"/>
      <point x="133" y="-58" type="line"/>
      <point x="-37" y="-58" type="line"/>
    </contour>
  </outline>
</glyph>
<glyph name="underscore" format="1">
  <advance width="768"/>
  <unicode hex="005F"/>
  <outline>
    <contour>
      <point x="3" y="-142" type="line"/>
      <point x="599" y="-142" type="line"/>
      <point x="613" y="-75" type="line"/>
      <point x="17" y="-75" type="line"/>
    </contour>
  </outline>
</glyph>
<glyph name="grave" format="1">
  <advance width="257"/>
  <unicode hex="0060"/>
  <outline>
    <contour>
      <point x="237" y="576" type="line"/>
      <point x="293" y="576" type="line"/>
      <point x="202" y="720" type="line"/>
      <point x="121" y="702" type="line"/>
    </contour>
    <contour>
      <point x="250" y="517" type="move" name="_top"/>
    </contour>
    <contour>
      <point x="288" y="704" type="move" name="top"/>
    </contour>
  </outline>
</glyph>
<glyph name="e" format="1">
  <advance width="558"/>
  <unicode hex="0065"/>
  <outline>
    <contour>
      <point x="247" y="-12" type="curve" smooth="yes"/>
      <point x="317" y="-12"/>
      <point x="420" y="17"/>
      <point x="475" y="66" type="curve"/>
      <point x="435" y="119" type="line"/>
      <point x="397" y="84"/>
      <point x="324" y="55"/>
      <point x="260" y="55" type="curve" smooth="yes"/>
      <point x="168" y="55"/>
      <point x="112" y="116"/>
      <point x="112" y="210" type="curve" smooth="yes"/>
      <point x="112" y="334"/>
      <point x="210" y="462"/>
      <point x="349" y="462" type="curve" smooth="yes"/>
      <point x="416" y="462"/>
      <point x="466" y="432"/>
      <point x="466" y="382" type="curve" smooth="yes"/>
      <point x="466" y="328"/>
      <point x="409" y="297"/>
      <point x="309" y="297" type="curve"/>
      <point x="102" y="297" type="line"/>
      <point x="88" y="230" type="line"/>
      <point x="295" y="230" type="line"/>
      <point x="449" y="230"/>
      <point x="540" y="295"/>
      <point x="540" y="386" type="curve" smooth="yes"/>
      <point x="540" y="475"/>
      <point x="452" y="529"/>
      <point x="355" y="529" type="curve" smooth="yes"/>
      <point x="192" y="529"/>
      <point x="38" y="376"/>
      <point x="38" y="204" type="curve" smooth="yes"/>
      <point x="38" y="75"/>
      <point x="125" y="-12"/>
    </contour>
    <contour>
      <point x="247" y="-12" type="move" name="bottom"/>
    </contour>
    <contour>
      <point x="353" y="517" type="move" name="top"/>
    </contour>
  </outline>
</glyph>
<glyph name="g" format="1">
  <advance width="630"/>
  <unicode hex="0067"/>
  <outline>
    <contour>
      <point x="522" y="517" type="line"/>
      <point x="427" y="58" type="line" smooth="yes"/>
      <point x="406" y="-43"/>
      <point x="318" y="-105"/>
      <point x="202" y="-105" type="curve" smooth="yes"/>
      <point x="135" y="-105"/>
      <point x="80" y="-84"/>
      <point x="48" y="-46" type="curve"/>
      <point x="7" y="-101" type="line"/>
      <point x="46" y="-141"/>
      <point x="118" y="-172"/>
      <point x="204" y="-172" type="curve" smooth="yes"/>
      <point x="347" y="-172"/>
      <point x="471" y="-86"/>
      <point x="500" y="52" type="curve" smooth="yes"/>
      <point x="597" y="517" type="line"/>
    </contour>
    <contour>
      <point x="257" y="105" type="curve" smooth="yes"/>
      <point x="172" y="105"/>
      <point x="121" y="157"/>
      <point x="121" y="240" type="curve" smooth="yes"/>
      <point x="121" y="356"/>
      <point x="222" y="462"/>
      <point x="343" y="462" type="curve" smooth="yes"/>
      <point x="427" y="462"/>
      <point x="479" y="411"/>
      <point x="479" y="328" type="curve" smooth="yes"/>
      <point x="479" y="215"/>
      <point x="381" y="105"/>
    </contour>
    <contour>
      <point x="465" y="163" type="curve"/>
      <point x="511" y="398" type="line"/>
      <point x="491" y="473"/>
      <point x="432" y="529"/>
      <point x="330" y="529" type="curve" smooth="yes"/>
      <point x="169" y="529"/>
      <point x="42" y="387"/>
      <point x="42" y="234" type="curve" smooth="yes"/>
      <point x="42" y="114"/>
      <point x="119" y="38"/>
      <point x="238" y="38" type="curve" smooth="yes"/>
      <point x="331" y="38"/>
      <point x="410" y="84"/>
    </contour>
    <contour>
      <point x="204" y="-172" type="move" name="bottom"/>
    </contour>
    <contour>
      <point x="361" y="517" type="move" name="top"/>
    </contour>
  </outline>
</glyph>
<glyph name="o" format="1">
  <advance width="620"/>
  <unicode hex="006F"/>
  <outline>
    <contour>
      <point x="252" y="-12" type="curve" smooth="yes"/>
      <point x="431" y="-12"/>
      <point x="582" y="135"/>
      <point x="582" y="309" type="curve" smooth="yes"/>
      <point x="582" y="428"/>
      <point x="482" y="529"/>
      <point x="364" y="529" type="curve" smooth="yes"/>
      <point x="187" y="529"/>
      <point x="38" y="382"/>
      <point x="38" y="208" type="curve" smooth="yes"/>
      <point x="38" y="89"/>
      <point x="136" y="-12"/>
    </contour>
    <contour>
      <point x="266" y="55" type="curve" smooth="yes"/>
      <point x="185" y="55"/>
      <point x="116" y="127"/>
      <point x="116" y="213" type="curve" smooth="yes"/>
      <point x="116" y="348"/>
      <point x="223" y="462"/>
      <point x="350" y="462" type="curve" smooth="yes"/>
      <point x="434" y="462"/>
      <point x="504" y="389"/>
      <point x="504" y="303" type="curve" smooth="yes"/>
      <point x="504" y="168"/>
      <point x="395" y="55"/>
    </contour>
    <contour>
      <point x="360" y="517" type="move" name="top"/>
    </contour>
  </outline>
</glyph>
<glyph name="u" format="1">
  <advance width="600"/>
  <unicode hex="0075"/>
  <outline>
    <component base="n" xScale="-1" yScale="-1" xOffset="600" yOffset="517"/>
    <contour>
      <point x="459" y="0" type="move" name="bottom"/>
    </contour>
    <contour>
      <point x="342" y="519" type="move" name="top"/>
    </contour>
  </outline>
</glyph>
<glyph name="w" format="1">
  <advance width="797"/>
  <unicode hex="0077"/>
  <outline>
    <contour>
      <point x="135" y="0" type="line"/>
      <point x="206" y="0" type="line"/>
      <point x="432" y="413" type="line"/>
      <point x="482" y="0" type="line"/>
      <point x="553" y="0" type="line"/>
      <point x="835" y="517" type="line"/>
      <point x="753" y="517" type="line"/>
      <point x="537" y="100" type="line"/>
      <point x="483" y="517" type="line"/>
      <point x="418" y="517" type="line"/>
      <point x="190" y="100" type="line"/>
      <point x="148" y="517" type="line"/>
      <point x="70" y="517" type="line"/>
    </contour>
    <contour>
      <point x="451" y="517" type="move" name="top"/>
    </contour>
  </outline>
</glyph>
<glyph name="bar" format="1">
  <advance width="322"/>
  <unicode hex="007C"/>
  <outline>
    <contour>
      <point x="62" y="-74" type="line"/>
      <point x="122" y="-74" type="line"/>
      <point x="292" y="743" type="line"/>
      <point x="232" y="743" type="line"/>
    </contour>
  </outline>
</glyph>
<glyph name="braceright" format="1">
  <advance width="358"/>
  <unicode hex="007D"/>
  <outline>
    <contour>
      <point x="-49" y="-166" type="line"/>
      <point x="109" y="-149"/>
      <point x="162" y="-103"/>
      <point x="183" y="0" type="curve" smooth="yes"/>
      <point x="213" y="141" type="line" smooth="yes"/>
      <point x="227" y="208"/>
      <point x="263" y="238"/>
      <point x="334" y="238" type="curve"/>
      <point x="340" y="293" type="line"/>
      <point x="283" y="293"/>
      <point x="260" y="309"/>
      <point x="260" y="349" type="curve" smooth="yes"/>
      <point x="260" y="398"/>
      <point x="298" y="519"/>
      <point x="298" y="572" type="curve" smooth="yes"/>
      <point x="298" y="645"/>
      <point x="250" y="683"/>
      <point x="125" y="697" type="curve"/>
      <point x="113" y="644" type="line"/>
      <point x="204" y="630"/>
      <point x="234" y="614"/>
      <point x="234" y="569" type="curve" smooth="yes"/>
      <point x="234" y="534"/>
      <point x="193" y="393"/>
      <point x="193" y="349" type="curve" smooth="yes"/>
      <point x="193" y="307"/>
      <point x="214" y="281"/>
      <point x="248" y="268" type="curve"/>
      <point x="192" y="249"/>
      <point x="163" y="217"/>
      <point x="150" y="154" type="curve" smooth="yes"/>
      <point x="121" y="11" type="line" smooth="yes"/>
      <point x="104" y="-70"/>
      <point x="71" y="-95"/>
      <point x="-50" y="-113" type="curve"/>
    </contour>
  </outline>
</glyph>
<glyph name="cent" format="1">
  <advance width="606"/>
  <unicode hex="00A2"/>
  <outline>
    <contour>
      <point x="256" y="-74" type="line"/>
      <point x="334" y="-74" type="line"/>
      <point x="472" y="589" type="line"/>
      <point x="394" y="589" type="line"/>
    </contour>
    <component base="c" xOffset="61"/>
  </outline>
</glyph>
<glyph name="yen" format="1">
  <advance width="854"/>
  <unicode hex="00A5"/>
  <outline>
    <contour>
      <point x="248" y="115" type="line"/>
      <point x="744" y="115" type="line"/>
      <point x="758" y="182" type="line"/>
      <point x="262" y="182" type="line"/>
    </contour>
    <contour>
      <point x="279" y="262" type="line"/>
      <point x="775" y="262" type="line"/>
      <point x="789" y="329" type="line"/>
      <point x="293" y="329" type="line"/>
    </contour>
    <component base="Y" xOffset="158"/>
  </outline>
</glyph>
<glyph name="dieresis" format="1">
  <advance width="432"/>
  <unicode hex="00A8"/>
  <outline>
    <contour>
      <point x="196" y="597" type="curve" smooth="yes"/>
      <point x="221" y="597"/>
      <point x="246" y="621"/>
      <point x="246" y="647" type="curve" smooth="yes"/>
      <point x="246" y="670"/>
      <point x="229" y="689"/>
      <point x="204" y="689" type="curve" smooth="yes"/>
      <point x="177" y="689"/>
      <point x="154" y="664"/>
      <point x="154" y="639" type="curve" smooth="yes"/>
      <point x="154" y="616"/>
      <point x="170" y="597"/>
    </contour>
    <contour>
      <point x="388" y="597" type="curve" smooth="yes"/>
      <point x="413" y="597"/>
      <point x="438" y="621"/>
      <point x="438" y="647" type="curve" smooth="yes"/>
      <point x="438" y="670"/>
      <point x="421" y="689"/>
      <point x="396" y="689" type="curve" smooth="yes"/>
      <point x="369" y="689"/>
      <point x="346" y="664"/>
      <point x="346" y="639" type="curve" smooth="yes"/>
      <point x="346" y="616"/>
      <point x="362" y="597"/>
    </contour>
    <contour>
      <point x="270" y="517" type="move" name="_top"/>
    </contour>
    <contour>
      <point x="309" y="704" type="move" name="top"/>
    </contour>
  </outline>
</glyph>
<glyph name="cedilla" format="1">
  <advance width="291"/>
  <unicode hex="00B8"/>
  <outline>
    <contour>
      <point x="46" y="-192" type="curve" smooth="yes"/>
      <point x="104" y="-192"/>
      <point x="156" y="-156"/>
      <point x="156" y="-101" type="curve" smooth="yes"/>
      <point x="156" y="-68"/>
      <point x="131" y="-45"/>
      <point x="95" y="-45" type="curve" smooth="yes"/>
      <point x="74" y="-45"/>
      <point x="46" y="-52"/>
      <point x="27" y="-65" type="curve"/>
      <point x="76" y="-67" type="line"/>
      <point x="126" y="11" type="line"/>
      <point x="72" y="11" type="line"/>
      <point x="24" y="-67" type="line"/>
      <point x="39" y="-86" type="line"/>
      <point x="50" y="-78"/>
      <point x="64" y="-73"/>
      <point x="78" y="-73" type="curve" smooth="yes"/>
      <point x="94" y="-73"/>
      <point x="106" y="-85"/>
      <point x="106" y="-102" type="curve" smooth="yes"/>
      <point x="106" y="-129"/>
      <point x="82" y="-145"/>
      <point x="41" y="-145" type="curve" smooth="yes"/>
      <point x="22" y="-145"/>
      <point x="0" y="-140"/>
      <point x="-16" y="-124" type="curve"/>
      <point x="-40" y="-162" type="line"/>
      <point x="-22" y="-178"/>
      <point x="8" y="-192"/>
    </contour>
    <contour>
      <point x="94" y="0" type="move" name="_bottom"/>
    </contour>
  </outline>
</glyph>
<glyph name="AE" format="1">
  <advance width="1002"/>
  <unicode hex="00C6"/>
  <outline>
    <contour>
      <point x="-1" y="0" type="line"/>
      <point x="92" y="0" type="line"/>
      <point x="214" y="156" type="line"/>
      <point x="422" y="156" type="line"/>
      <point x="390" y="0" type="line"/>
      <point x="883" y="0" type="line"/>
      <point x="899" y="74" type="line"/>
      <point x="486" y="74" type="line"/>
      <point x="534" y="313" type="line"/>
      <point x="908" y="313" type="line"/>
      <point x="923" y="387" type="line"/>
      <point x="551" y="387" type="line"/>
      <point x="596" y="613" type="line"/>
      <point x="1011" y="613" type="line"/>
      <point x="1026" y="687" type="line"/>
      <point x="533" y="687" type="line"/>
    </contour>
    <contour>
      <point x="272" y="230" type="line"/>
      <point x="498" y="517" type="line"/>
      <point x="438" y="230" type="line"/>
    </contour>
    <contour>
      <point x="630" y="0" type="move" name="bottom"/>
    </contour>
  </outline>
</glyph>
<glyph name="Thorn" format="1">
  <advance width="698"/>
  <unicode hex="00DE"/>
  <outline>
    <contour>
      <point x="47" y="0" type="line"/>
      <point x="125" y="0" type="line"/>
      <point x="152" y="126" type="line"/>
      <point x="355" y="126" type="line" smooth="yes"/>
      <point x="513" y="126"/>
      <point x="655" y="237"/>
      <point x="655" y="385" type="curve" smooth="yes"/>
      <point x="655" y="493"/>
      <point x="566" y="566"/>
      <point x="441" y="566" type="curve" smooth="yes"/>
      <point x="245" y="566" type="line"/>
      <point x="270" y="687" type="line"/>
      <point x="190" y="687" type="line"/>
    </contour>
    <contour>
      <point x="167" y="200" type="line"/>
      <point x="228" y="492" type="line"/>
      <point x="418" y="492" type="line" smooth="yes"/>
      <point x="517" y="492"/>
      <point x="577" y="452"/>
      <point x="577" y="381" type="curve" smooth="yes"/>
      <point x="577" y="274"/>
      <point x="474" y="200"/>
      <point x="351" y="200" type="curve" smooth="yes"/>
    </contour>
  </outline>
</glyph>
<glyph name="germandbls" format="1">
  <advance width="574"/>
  <unicode hex="00DF"/>
  <outline>
    <contour>
      <point x="26" y="0" type="line"/>
      <point x="104" y="0" type="line"/>
      <point x="211" y="510" type="line" smooth="yes"/>
      <point x="226" y="582"/>
      <point x="294" y="636"/>
      <point x="372" y="636" type="curve" smooth="yes"/>
      <point x="436" y="636"/>
      <point x="476" y="600"/>
      <point x="476" y="547" type="curve" smooth="yes"/>
      <point x="476" y="470"/>
      <point x="399" y="396"/>
      <point x="314" y="396" type="curve" smooth="yes"/>
      <point x="262" y="396" type="line"/>
      <point x="247" y="325" type="line"/>
      <point x="317" y="325" type="line" smooth="yes"/>
      <point x="391" y="325"/>
      <point x="437" y="287"/>
      <point x="437" y="229" type="curve" smooth="yes"/>
      <point x="437" y="145"/>
      <point x="354" y="71"/>
      <point x="258" y="71" type="curve" smooth="yes"/>
      <point x="194" y="71" type="line"/>
      <point x="179" y="0" type="line"/>
      <point x="269" y="0" type="line" smooth="yes"/>
      <point x="400" y="0"/>
      <point x="512" y="95"/>
      <point x="512" y="220" type="curve" smooth="yes"/>
      <point x="512" y="281"/>
      <point x="478" y="330"/>
      <point x="421" y="362" type="curve"/>
      <point x="502" y="404"/>
      <point x="556" y="472"/>
      <point x="556" y="558" type="curve" smooth="yes"/>
      <point x="556" y="647"/>
      <point x="487" y="707"/>
      <point x="377" y="707" type="curve" smooth="yes"/>
      <point x="258" y="707"/>
      <point x="159" y="635"/>
      <point x="137" y="529" type="curve" smooth="yes"/>
    </contour>
  </outline>
</glyph>
<glyph name="oslash" format="1">
  <advance width="644"/>
  <unicode hex="00F8"/>
  <outline>
    <contour>
      <point x="1" y="0" type="line"/>
      <point x="88" y="0" type="line"/>
      <point x="637" y="517" type="line"/>
      <point x="550" y="517" type="line"/>
    </contour>
    <component base="o" xOffset="3"/>
  </outline>
</glyph>
<glyph name="idotless" format="1">
  <advance width="249"/>
  <unicode hex="0131"/>
  <outline>
    <contour>
      <point x="33" y="0" type="line"/>
      <point x="108" y="0" type="line"/>
      <point x="216" y="517" type="line"/>
      <point x="141" y="517" type="line"/>
    </contour>
    <contour>
      <point x="108" y="0" type="move" name="bottom"/>
    </contour>
    <contour>
      <point x="88" y="260" type="move" name="loop_left"/>
    </contour>
    <contour>
      <point x="168" y="287" type="move" name="r_shoulder"/>
    </contour>
    <contour>
      <point x="176" y="326" type="move" name="shoulder"/>
    </contour>
    <contour>
      <point x="179" y="517" type="move" name="top"/>
    </contour>
  </outline>
</glyph>
<glyph name="jdotless" format="1">
  <advance width="237"/>
  <unicode hex="0237"/>
  <outline>
    <contour>
      <point x="-55" y="-178" type="curve" smooth="yes"/>
      <point x="16" y="-178"/>
      <point x="76" y="-126"/>
      <point x="92" y="-49" type="curve" smooth="yes"/>
      <point x="210" y="517" type="line"/>
      <point x="135" y="517" type="line"/>
      <point x="19" y="-43" type="line" smooth="yes"/>
      <point x="11" y="-81"/>
      <point x="-21" y="-111"/>
      <point x="-57" y="-111" type="curve" smooth="yes"/>
      <point x="-75" y="-111"/>
      <point x="-101" y="-107"/>
      <point x="-116" y="-101" type="curve"/>
      <point x="-136" y="-161" type="line"/>
      <point x="-117" y="-170"/>
      <point x="-86" y="-178"/>
    </contour>
    <contour>
      <point x="173" y="517" type="move" name="top"/>
    </contour>
  </outline>
</glyph>
<glyph name="breve" format="1">
  <advance width="406"/>
  <unicode hex="02D8"/>
  <outline>
    <contour>
      <point x="274" y="589" type="curve" smooth="yes"/>
      <point x="325" y="589"/>
      <point x="381" y="607"/>
      <point x="429" y="647" type="curve"/>
      <point x="388" y="698" type="line"/>
      <point x="356" y="672"/>
      <point x="315" y="654"/>
      <point x="277" y="654" type="curve" smooth="yes"/>
      <point x="245" y="654"/>
      <point x="211" y="668"/>
      <point x="190" y="694" type="curve"/>
      <point x="137" y="651" type="line"/>
      <point x="171" y="611"/>
      <point x="219" y="589"/>
    </contour>
    <contour>
      <point x="254" y="517" type="move" name="_top"/>
    </contour>
    <contour>
      <point x="293" y="704" type="move" name="top"/>
    </contour>
  </outline>
</glyph>
<glyph name="dotaccent" format="1">
  <advance width="240"/>
  <unicode hex="02D9"/>
  <outline>
    <contour>
      <point x="196" y="597" type="curve" smooth="yes"/>
      <point x="221" y="597"/>
      <point x="246" y="621"/>
      <point x="246" y="647" type="curve" smooth="yes"/>
      <point x="246" y="670"/>
      <point x="229" y="689"/>
      <point x="204" y="689" type="curve" smooth="yes"/>
      <point x="177" y="689"/>
      <point x="154" y="664"/>
      <point x="154" y="639" type="curve" smooth="yes"/>
      <point x="154" y="616"/>
      <point x="170" y="597"/>
    </contour>
    <contour>
      <point x="174" y="517" type="move" name="_top"/>
    </contour>
    <contour>
      <point x="66" y="0" type="move" name="bottom"/>
    </contour>
    <contour>
      <point x="213" y="704" type="move" name="top"/>
    </contour>
  </outline>
</glyph>
<glyph name="tilde" format="1">
  <advance width="453"/>
  <unicode hex="02DC"/>
  <outline>
    <contour>
      <point x="363" y="575" type="curve" smooth="yes"/>
      <point x="415" y="575"/>
      <point x="452" y="615"/>
      <point x="478" y="691" type="curve"/>
      <point x="433" y="704" type="line"/>
      <point x="415" y="656"/>
      <point x="392" y="633"/>
      <point x="364" y="633" type="curve" smooth="yes"/>
      <point x="325" y="633"/>
      <point x="310" y="699"/>
      <point x="248" y="699" type="curve" smooth="yes"/>
      <point x="196" y="699"/>
      <point x="159" y="659"/>
      <point x="133" y="583" type="curve"/>
      <point x="178" y="570" type="line"/>
      <point x="195" y="618"/>
      <point x="219" y="641"/>
      <point x="247" y="641" type="curve" smooth="yes"/>
      <point x="286" y="641"/>
      <point x="301" y="575"/>
    </contour>
    <contour>
      <point x="281" y="517" type="move" name="_top"/>
    </contour>
    <contour>
      <point x="320" y="704" type="move" name="top"/>
    </contour>
  </outline>
</glyph>
<glyph name="dotaccentcomb" format="1">
  <advance width="247"/>
  <unicode hex="0307"/>
  <outline>
    <contour>
      <point x="203" y="611" type="curve" smooth="yes"/>
      <point x="230" y="611"/>
      <point x="257" y="637"/>
      <point x="257" y="665" type="curve" smooth="yes"/>
      <point x="257" y="690"/>
      <point x="239" y="710"/>
      <point x="213" y="710" type="curve" smooth="yes"/>
      <point x="183" y="710"/>
      <point x="158" y="683"/>
      <point x="158" y="656" type="curve" smooth="yes"/>
      <point x="158" y="631"/>
      <point x="176" y="611"/>
    </contour>
    <contour>
      <point x="178" y="517" type="move" name="_top"/>
    </contour>
  </outline>
</glyph>
<glyph name="guilsinglleft" format="1">
  <advance width="314"/>
  <unicode hex="2039"/>
  <outline>
    <contour>
      <point x="152" y="52" type="line"/>
      <point x="229" y="69" type="line"/>
      <point x="121" y="252" type="line"/>
      <point x="306" y="432" type="line"/>
      <point x="232" y="448" type="line"/>
      <point x="32" y="251" type="line"/>
    </contour>
  </outline>
</glyph>
<glyph name="euro" format="1">
  <advance width="793"/>
  <unicode hex="20AC"/>
  <outline>
    <contour>
      <point x="76" y="236" type="line"/>
      <point x="572" y="236" type="line"/>
      <point x="585" y="303" type="line"/>
      <point x="89" y="303" type="line"/>
    </contour>
    <contour>
      <point x="110" y="403" type="line"/>
      <point x="606" y="403" type="line"/>
      <point x="620" y="470" type="line"/>
      <point x="124" y="470" type="line"/>
    </contour>
    <component base="C" xOffset="104"/>
  </outline>
</glyph>
<glyph name="trademark" format="1">
  <advance width="834"/>
  <unicode hex="2122"/>
  <outline>
    <contour>
      <point x="166" y="279" type="line"/>
      <point x="244" y="279" type="line"/>
      <point x="291" y="504" type="line"/>
      <point x="371" y="504" type="line"/>
      <point x="386" y="579" type="line"/>
      <point x="150" y="579" type="line"/>
      <point x="135" y="504" type="line"/>
      <point x="213" y="504" type="line"/>
    </contour>
    <contour>
      <point x="372" y="279" type="line"/>
      <point x="450" y="279" type="line"/>
      <point x="485" y="446" type="line"/>
      <point x="543" y="296" type="line"/>
      <point x="663" y="446" type="line"/>
      <point x="628" y="279" type="line"/>
      <point x="707" y="279" type="line"/>
      <point x="769" y="579" type="line"/>
      <point x="690" y="579" type="line"/>
      <point x="570" y="430" type="line"/>
      <point x="512" y="579" type="line"/>
      <point x="434" y="579" type="line"/>
    </contour>
  </outline>
</glyph>
<glyph name="ae_upper" format="1">
  <advance width="489"/>
  <outline>
    <contour>
      <point x="-51" y="0" type="line"/>
      <point x="42" y="0" type="line"/>
      <point x="581" y="687" type="line"/>
      <point x="489" y="687" type="line"/>
    </contour>
    <contour>
      <point x="129" y="156" type="line"/>
      <point x="448" y="156" type="line"/>
      <point x="463" y="230" type="line"/>
      <point x="144" y="230" type="line"/>
    </contour>
    <contour>
      <point x="483" y="687" type="move" name="_ae_upper"/>
    </contour>
  </outline>
</glyph>
<glyph name="descender" format="1">
  <advance width="338"/>
  <outline>
    <contour>
      <point x="42" y="-172" type="line"/>
      <point x="117" y="-172" type="line"/>
      <point x="260" y="517" type="line"/>
      <point x="185" y="517" type="line"/>
    </contour>
    <contour>
      <point x="132" y="260" type="move" name="loop_left"/>
    </contour>
    <contour>
      <point x="205" y="253" type="move" name="loop_right"/>
    </contour>
  </outline>
</glyph>
<glyph name="k_arms" format="1">
  <advance width="419"/>
  <outline>
    <contour>
      <point x="251" y="0" type="line"/>
      <point x="342" y="0" type="line"/>
      <point x="182" y="280" type="line"/>
      <point x="465" y="517" type="line"/>
      <point x="367" y="517" type="line"/>
      <point x="13" y="221" type="line"/>
      <point x="-5" y="127" type="line"/>
      <point x="120" y="229" type="line"/>
    </contour>
    <contour>
      <point x="-5" y="127" type="move" name="k_arms"/>
    </contour>
  </outline>
</glyph>
<glyph name="lowercase_nh_shoulder" format="1">
  <advance width="472"/>
  <outline>
    <contour>
      <point x="270" y="0" type="curve"/>
      <point x="345" y="0" type="line"/>
      <point x="410" y="311"/>
      <point x="418" y="336"/>
      <point x="418" y="374" type="curve" smooth="yes"/>
      <point x="418" y="466"/>
      <point x="356" y="529"/>
      <point x="256" y="529" type="curve" smooth="yes"/>
      <point x="163" y="529"/>
      <point x="67" y="463"/>
      <point x="45" y="382" type="curve"/>
      <point x="50" y="326" type="line"/>
      <point x="65" y="398"/>
      <point x="153" y="462"/>
      <point x="243" y="462" type="curve" smooth="yes"/>
      <point x="304" y="462"/>
      <point x="341" y="423"/>
      <point x="341" y="361" type="curve" smooth="yes"/>
      <point x="341" y="330"/>
      <point x="334" y="308"/>
    </contour>
    <contour>
      <point x="50" y="326" type="move" name="_shoulder"/>
    </contour>
  </outline>
</glyph>
